<svg xmlns="http://www.w3.org/2000/svg" width="157" height="37" viewBox="0 0 157 37">
  <g id="Group_9" data-name="Group 9" transform="translate(-727 -13)">
    <rect id="Rectangle_41" data-name="Rectangle 41" width="157" height="37" transform="translate(727 13)" fill="#fff"/>
    <path id="Fresume" d="M10.369,7.08H26.637l-1.09,4.96H15.05l-.838,3.95h9.181L22.4,20.65h-9.15l-1.89,8.85h-5.7Zm15.024,1H11.181L6.891,28.5h3.66l1.89-8.85h9.15l.567-2.66H12.978l1.262-5.95h10.5Zm10.762,4.49a10.305,10.305,0,0,1,1.388.095l.532.073L37.18,17a10.024,10.024,0,0,1,.913-1.318,8.663,8.663,0,0,1,2.848-2.26,8.4,8.4,0,0,1,3.794-.848,10.356,10.356,0,0,1,3.105.443,6.577,6.577,0,0,1,2.465,1.381,6.325,6.325,0,0,1,1.6,2.31,8.246,8.246,0,0,1,.563,3.145,13.877,13.877,0,0,1-.248,2.521l-.076.409H40.765v.4a2.461,2.461,0,0,0,.694,1.836,3.065,3.065,0,0,0,2.226.694,2.57,2.57,0,0,0,.942-.16,2.86,2.86,0,0,0,.741-.42,3.115,3.115,0,0,0,.569-.595c.185-.253.357-.5.513-.732l.148-.223h5.257l-.263.68a11.435,11.435,0,0,1-1.256,2.416,7.224,7.224,0,0,1-1.773,1.788,7.343,7.343,0,0,1-2.4,1.08,12.407,12.407,0,0,1-3.08.346,9.565,9.565,0,0,1-2.991-.445,6.216,6.216,0,0,1-2.363-1.387,6.31,6.31,0,0,1-1.516-2.295,8.543,8.543,0,0,1-.53-3.123,11.384,11.384,0,0,1,.628-3.749,11.13,11.13,0,0,1,.427-1.054l-1.133-.227a4.1,4.1,0,0,0-.8-.08,4.23,4.23,0,0,0-1.865.369,3.76,3.76,0,0,0-1.272,1.007,5.365,5.365,0,0,0-.85,1.5,12.65,12.65,0,0,0-.534,1.832L28.761,29.5h-5.25l3.417-16.51H32.01l-.27,1.2a5.51,5.51,0,0,1,1-.727A6.831,6.831,0,0,1,36.155,12.57Zm.717,1.028c-.239-.019-.479-.028-.717-.028a5.843,5.843,0,0,0-2.918.76,4.575,4.575,0,0,0-1.965,2.213l-.3.665-.77-.77.553-2.449H27.742l-3,14.51h3.21l1.357-6.473a13.656,13.656,0,0,1,.577-1.979,6.363,6.363,0,0,1,1.01-1.774A4.753,4.753,0,0,1,32.5,17,5.208,5.208,0,0,1,34.8,16.53a5.1,5.1,0,0,1,1,.1l.414.083ZM51.3,21.78a12.424,12.424,0,0,0,.161-1.93,7.259,7.259,0,0,0-.487-2.765,5.334,5.334,0,0,0-1.343-1.95,5.586,5.586,0,0,0-2.095-1.169,9.361,9.361,0,0,0-2.8-.4,7.413,7.413,0,0,0-3.346.742,7.669,7.669,0,0,0-2.522,2,9.46,9.46,0,0,0-1.609,2.907,10.386,10.386,0,0,0-.572,3.421,7.556,7.556,0,0,0,.46,2.757,5.319,5.319,0,0,0,1.274,1.935A5.225,5.225,0,0,0,40.406,28.5a8.571,8.571,0,0,0,2.679.395,11.418,11.418,0,0,0,2.83-.314,6.35,6.35,0,0,0,2.073-.93A6.228,6.228,0,0,0,49.515,26.1a9.731,9.731,0,0,0,.858-1.524H47.13c-.122.177-.251.359-.387.545a4.115,4.115,0,0,1-.751.785,3.857,3.857,0,0,1-1,.57,3.56,3.56,0,0,1-1.308.23,4,4,0,0,1-2.934-.986,3.457,3.457,0,0,1-.986-2.544v-.63a1.894,1.894,0,0,1,.04-.368l.08-.4Zm10.261-9.21a14.3,14.3,0,0,1,2.518.218,6.256,6.256,0,0,1,2.232.834,4.434,4.434,0,0,1,1.571,1.7,5.511,5.511,0,0,1,.538,2.7l-.01.49H63.48l-.015-.485a1.7,1.7,0,0,0-.439-1.207,2.058,2.058,0,0,0-1.461-.409,3.961,3.961,0,0,0-1.663.3.715.715,0,0,0-.447.732.588.588,0,0,0,.254.485,4.038,4.038,0,0,0,1.342.6l.008,0,2.127.689a11.728,11.728,0,0,1,1.674.658,5.7,5.7,0,0,1,1.414.971,4.293,4.293,0,0,1,.984,1.408,4.675,4.675,0,0,1,.357,1.88,4.942,4.942,0,0,1-.724,2.715,5.62,5.62,0,0,1-1.859,1.794,8.014,8.014,0,0,1-2.527.961,13.852,13.852,0,0,1-2.77.28,12.028,12.028,0,0,1-2.41-.25,7.4,7.4,0,0,1-2.268-.854,5.14,5.14,0,0,1-1.71-1.627,4.608,4.608,0,0,1-.682-2.569V23.46h4.93v1.01a1.1,1.1,0,0,0,.181.645,1.681,1.681,0,0,0,.547.5,3.172,3.172,0,0,0,.855.336,4.142,4.142,0,0,0,.977.121,4.722,4.722,0,0,0,.868-.081,2.25,2.25,0,0,0,.712-.257,1.42,1.42,0,0,0,.469-.422,1.042,1.042,0,0,0,.15-.6.992.992,0,0,0-.229-.747,3.351,3.351,0,0,0-.96-.489l-3.27-1.05a12.273,12.273,0,0,1-1.486-.595,4.214,4.214,0,0,1-1.19-.852,3.477,3.477,0,0,1-.771-1.259,5.189,5.189,0,0,1-.254-1.728,4.462,4.462,0,0,1,.734-2.595,5.574,5.574,0,0,1,1.827-1.664,8.131,8.131,0,0,1,2.381-.9A11.875,11.875,0,0,1,61.565,12.57Zm5.854,4.95A4.1,4.1,0,0,0,67,15.795a3.4,3.4,0,0,0-1.219-1.326,5.264,5.264,0,0,0-1.878-.7,13.3,13.3,0,0,0-2.342-.2,10.876,10.876,0,0,0-2.222.244,7.133,7.133,0,0,0-2.089.784,4.582,4.582,0,0,0-1.5,1.366,3.488,3.488,0,0,0-.556,2.025,4.215,4.215,0,0,0,.2,1.392,2.484,2.484,0,0,0,.549.9,3.218,3.218,0,0,0,.91.648,11.27,11.27,0,0,0,1.36.544l3.28,1.053a4.337,4.337,0,0,1,1.255.649,1.839,1.839,0,0,1,.611,1.533,2.009,2.009,0,0,1-.33,1.171,2.431,2.431,0,0,1-.791.718,3.246,3.246,0,0,1-1.028.373,5.725,5.725,0,0,1-1.052.1,5.143,5.143,0,0,1-1.213-.149,4.169,4.169,0,0,1-1.125-.444,2.7,2.7,0,0,1-.863-.792,2.09,2.09,0,0,1-.359-1.215v-.01h-2.93v.13a3.635,3.635,0,0,0,.518,2.021,4.148,4.148,0,0,0,1.38,1.313,6.4,6.4,0,0,0,1.962.736,11.027,11.027,0,0,0,2.21.23,12.851,12.851,0,0,0,2.57-.26,7.018,7.018,0,0,0,2.213-.839,4.628,4.628,0,0,0,1.531-1.476,3.965,3.965,0,0,0,.566-2.175,3.689,3.689,0,0,0-.273-1.48,3.3,3.3,0,0,0-.756-1.082,4.7,4.7,0,0,0-1.166-.8,10.728,10.728,0,0,0-1.533-.6l-.006,0-2.126-.689a4.99,4.99,0,0,1-1.684-.782,1.6,1.6,0,0,1-.616-1.255,1.7,1.7,0,0,1,1.023-1.638,4.929,4.929,0,0,1,2.087-.392,2.969,2.969,0,0,1,2.169.7,2.5,2.5,0,0,1,.685,1.4Zm32.456-4.95a5.1,5.1,0,0,1,2.723.7,3.118,3.118,0,0,1,1.231,1.446,5.765,5.765,0,0,1,.468-.431,7.937,7.937,0,0,1,1.377-.913,7.257,7.257,0,0,1,1.563-.6,6.643,6.643,0,0,1,1.638-.211,6.993,6.993,0,0,1,1.89.259,5.237,5.237,0,0,1,1.674.8,3.994,3.994,0,0,1,1.2,1.4A4.229,4.229,0,0,1,114.085,17a7.8,7.8,0,0,1-.16,1.555c-.1.49-.2.971-.3,1.431l-2,9.514h-5.28l2.165-10.412a5.2,5.2,0,0,0,.11-1.008,1.025,1.025,0,0,0-.362-.8,1.409,1.409,0,0,0-1-.349,2.375,2.375,0,0,0-1.258.334,3.912,3.912,0,0,0-1.038.9,5.582,5.582,0,0,0-.757,1.253,6.939,6.939,0,0,0-.448,1.371L101.931,29.5H96.62l2.165-10.412a5.2,5.2,0,0,0,.11-1.008,1.025,1.025,0,0,0-.362-.8,1.409,1.409,0,0,0-1-.349,2.375,2.375,0,0,0-1.258.334,3.912,3.912,0,0,0-1.038.9,5.582,5.582,0,0,0-.757,1.253,6.939,6.939,0,0,0-.448,1.371L92.211,29.5h-5.25l3.417-16.51h5.109l-.239,1.088a6,6,0,0,1,1.329-.833A7.886,7.886,0,0,1,99.875,12.57Zm3.489,4.519-.23-1.227a2.422,2.422,0,0,0-1.061-1.737,4.123,4.123,0,0,0-2.2-.555,6.9,6.9,0,0,0-2.882.585,5.356,5.356,0,0,0-2.14,1.815l-.15.21h-.939l.48-2.19H91.192l-3,14.51H91.4l1.657-7.912a7.938,7.938,0,0,1,.512-1.569,6.58,6.58,0,0,1,.893-1.477,4.909,4.909,0,0,1,1.3-1.135,3.394,3.394,0,0,1,1.772-.476,2.4,2.4,0,0,1,1.672.611,2.014,2.014,0,0,1,.688,1.539,6.21,6.21,0,0,1-.13,1.208L97.85,28.5h3.269l1.657-7.912a7.938,7.938,0,0,1,.512-1.569,6.58,6.58,0,0,1,.893-1.477,4.909,4.909,0,0,1,1.3-1.135,3.394,3.394,0,0,1,1.772-.476,2.4,2.4,0,0,1,1.672.611,2.014,2.014,0,0,1,.688,1.539,6.21,6.21,0,0,1-.13,1.208L107.57,28.5h3.24l1.836-8.723c.1-.459.2-.936.3-1.422a6.8,6.8,0,0,0,.14-1.355,3.244,3.244,0,0,0-.334-1.509,3,3,0,0,0-.9-1.056,4.242,4.242,0,0,0-1.356-.643,5.993,5.993,0,0,0-1.62-.221,5.644,5.644,0,0,0-1.392.18,6.257,6.257,0,0,0-1.347.514,6.935,6.935,0,0,0-1.2.8,4.367,4.367,0,0,0-.889.982Zm20.9-4.519a10.356,10.356,0,0,1,3.105.443,6.577,6.577,0,0,1,2.465,1.381,6.325,6.325,0,0,1,1.6,2.31,8.246,8.246,0,0,1,.563,3.145,13.877,13.877,0,0,1-.248,2.521l-.076.409H120.295v.4a2.461,2.461,0,0,0,.694,1.836,3.065,3.065,0,0,0,2.226.694,2.57,2.57,0,0,0,.942-.16,2.86,2.86,0,0,0,.741-.42,3.115,3.115,0,0,0,.569-.595c.185-.253.357-.5.513-.732l.148-.223h5.257l-.263.68a11.435,11.435,0,0,1-1.256,2.416,7.225,7.225,0,0,1-1.773,1.788,7.343,7.343,0,0,1-2.4,1.08,12.407,12.407,0,0,1-3.08.346,9.565,9.565,0,0,1-2.991-.445,6.216,6.216,0,0,1-2.363-1.387,6.31,6.31,0,0,1-1.516-2.295,8.543,8.543,0,0,1-.53-3.123,11.384,11.384,0,0,1,.628-3.749,10.457,10.457,0,0,1,1.781-3.213,8.663,8.663,0,0,1,2.848-2.26A8.4,8.4,0,0,1,124.265,12.57Zm6.569,9.21a12.425,12.425,0,0,0,.161-1.93,7.259,7.259,0,0,0-.487-2.765,5.334,5.334,0,0,0-1.343-1.95,5.586,5.586,0,0,0-2.095-1.169,9.361,9.361,0,0,0-2.8-.4,7.413,7.413,0,0,0-3.346.742,7.669,7.669,0,0,0-2.522,2,9.46,9.46,0,0,0-1.609,2.907,10.386,10.386,0,0,0-.572,3.421,7.556,7.556,0,0,0,.46,2.757,5.319,5.319,0,0,0,1.274,1.935,5.225,5.225,0,0,0,1.987,1.163,8.571,8.571,0,0,0,2.679.395,11.418,11.418,0,0,0,2.83-.314,6.35,6.35,0,0,0,2.073-.93,6.228,6.228,0,0,0,1.527-1.542,9.732,9.732,0,0,0,.858-1.524H126.66c-.122.177-.251.359-.387.545a4.115,4.115,0,0,1-.751.785,3.857,3.857,0,0,1-1,.57,3.56,3.56,0,0,1-1.308.23,4,4,0,0,1-2.934-.986,3.457,3.457,0,0,1-.986-2.544v-.63a1.894,1.894,0,0,1,.04-.368l.08-.4ZM71.96,12.99h5.28l-2.021,9.72-.009.028a2.621,2.621,0,0,0-.087.364q-.045.253-.089.52a4.489,4.489,0,0,0-.054.472c-.009.159-.014.286-.014.376a.841.841,0,0,0,.431.73,1.885,1.885,0,0,0,1.109.36,3.2,3.2,0,0,0,1.468-.32,3.7,3.7,0,0,0,1.111-.859,4.916,4.916,0,0,0,.789-1.253,8,8,0,0,0,.494-1.495l1.823-8.643H87.47L84.021,29.5h-5.11l.26-1.171a7.2,7.2,0,0,1-4.647,1.561c-3.291,0-5.03-1.6-5.03-4.64a5.787,5.787,0,0,1,.049-.675c.031-.26.073-.53.125-.8s.1-.514.152-.747.1-.42.138-.569Zm4.051,1H72.77l-1.845,8.727c-.037.129-.08.305-.127.524s-.1.468-.148.723-.086.493-.115.73a4.915,4.915,0,0,0-.041.555c0,2.483,1.281,3.64,4.03,3.64a6.128,6.128,0,0,0,5.042-2.365l.15-.185h.921l-.48,2.16h3.05L86.24,13.99H83l-1.657,7.858a9,9,0,0,1-.556,1.684,5.913,5.913,0,0,1-.951,1.507,4.7,4.7,0,0,1-1.409,1.091,4.19,4.19,0,0,1-1.922.43,2.891,2.891,0,0,1-1.681-.54,1.848,1.848,0,0,1-.859-1.55c0-.111.005-.253.016-.434a5.489,5.489,0,0,1,.066-.578q.045-.272.091-.53a3.652,3.652,0,0,1,.113-.477ZM44.975,15.78a3.814,3.814,0,0,1,1.724.338,2.607,2.607,0,0,1,1.07.947,3.494,3.494,0,0,1,.473,1.242,7.226,7.226,0,0,1,.113,1.273v.5H40.031l.244-.671a8.561,8.561,0,0,1,.621-1.338,4.664,4.664,0,0,1,.958-1.176,4.51,4.51,0,0,1,1.349-.811A4.857,4.857,0,0,1,44.975,15.78Zm2.36,3.3c-.016-.2-.042-.4-.077-.6a2.5,2.5,0,0,0-.337-.888,1.6,1.6,0,0,0-.67-.583,2.907,2.907,0,0,0-1.276-.232,3.869,3.869,0,0,0-1.408.236,3.515,3.515,0,0,0-1.051.629,3.666,3.666,0,0,0-.752.924q-.143.249-.268.511Zm77.17-3.3a3.814,3.814,0,0,1,1.724.338,2.607,2.607,0,0,1,1.07.947,3.494,3.494,0,0,1,.473,1.242,7.226,7.226,0,0,1,.113,1.273v.5h-8.324l.244-.671a8.561,8.561,0,0,1,.621-1.338,4.663,4.663,0,0,1,.958-1.176,4.51,4.51,0,0,1,1.349-.811A4.857,4.857,0,0,1,124.5,15.78Zm2.36,3.3c-.016-.2-.042-.4-.077-.6a2.5,2.5,0,0,0-.337-.888,1.6,1.6,0,0,0-.67-.583,2.907,2.907,0,0,0-1.276-.232,3.869,3.869,0,0,0-1.408.236,3.515,3.515,0,0,0-1.051.629,3.666,3.666,0,0,0-.752.924q-.143.249-.268.511Z" transform="translate(743.5 11.244)" fill="none" stroke="#707070" stroke-width="1"/>
  </g>
</svg>
